<svg width="124" height="124" viewBox="0 0 124 124" fill="none" xmlns="http://www.w3.org/2000/svg">
<g filter="url(#filter0_i_546_140855)">
<g clip-path="url(#clip0_546_140855)">
<rect width="124" height="124" rx="62" fill="url(#paint0_linear_546_140855)"/>
<path d="M124 60.7417V64.0669H123.556C90.3723 64.0669 63.4519 90.8734 63.2811 124H60.2975C60.1153 90.862 33.1836 64.0669 0 64.0669V60.7417C33.2975 60.7417 60.2975 33.7416 60.2975 0.444118V0H63.2811V0.444118C63.2811 33.7416 90.2584 60.7417 123.556 60.7417H124Z" fill="url(#paint1_linear_546_140855)"/>
<path d="M124 60.7417V64.0669H123.556C90.3723 64.0669 63.4519 90.8734 63.2811 124H60.2975C60.1153 90.862 33.1836 64.0669 0 64.0669V60.7417C33.2975 60.7417 60.2975 33.7416 60.2975 0.444118V0H63.2811V0.444118C63.2811 33.7416 90.2584 60.7417 123.556 60.7417H124Z" fill="#009DFF" fill-opacity="0.38"/>
</g>
</g>
<defs>
<filter id="filter0_i_546_140855" x="-1.13876" y="0" width="125.139" height="129.694" filterUnits="userSpaceOnUse" color-interpolation-filters="sRGB">
<feFlood flood-opacity="0" result="BackgroundImageFix"/>
<feBlend mode="normal" in="SourceGraphic" in2="BackgroundImageFix" result="shape"/>
<feColorMatrix in="SourceAlpha" type="matrix" values="0 0 0 0 0 0 0 0 0 0 0 0 0 0 0 0 0 0 127 0" result="hardAlpha"/>
<feMorphology radius="1.13876" operator="erode" in="SourceAlpha" result="effect1_innerShadow_546_140855"/>
<feOffset dx="-1.13876" dy="5.69382"/>
<feGaussianBlur stdDeviation="2.61916"/>
<feComposite in2="hardAlpha" operator="arithmetic" k2="-1" k3="1"/>
<feColorMatrix type="matrix" values="0 0 0 0 0 0 0 0 0 0 0 0 0 0 0 0 0 0 0.25 0"/>
<feBlend mode="normal" in2="shape" result="effect1_innerShadow_546_140855"/>
</filter>
<linearGradient id="paint0_linear_546_140855" x1="62" y1="0" x2="-19.359" y2="124.125" gradientUnits="userSpaceOnUse">
<stop offset="0.9999" stop-color="white"/>
<stop offset="1" stop-color="#2E83C4"/>
</linearGradient>
<linearGradient id="paint1_linear_546_140855" x1="62" y1="0" x2="62" y2="124" gradientUnits="userSpaceOnUse">
<stop stop-color="#02FF28"/>
<stop offset="1" stop-color="#011304"/>
</linearGradient>
<clipPath id="clip0_546_140855">
<rect width="124" height="124" rx="62" fill="white"/>
</clipPath>
</defs>
</svg>
